<?xml version="1.0" encoding="UTF-8" standalone="no"?>
<!DOCTYPE svg PUBLIC "-//W3C//DTD SVG 1.1//EN"
 "http://www.w3.org/Graphics/SVG/1.1/DTD/svg11.dtd">
<!-- Generated by graphviz version 2.46.0 (20210118.1747)
 -->
<!-- Title: egraph Pages: 1 -->
<svg width="1009pt" height="436pt"
 viewBox="0.00 0.00 1008.53 436.00" xmlns="http://www.w3.org/2000/svg" xmlns:xlink="http://www.w3.org/1999/xlink">
<g id="graph0" class="graph" transform="scale(1 1) rotate(0) translate(4 432)">
<title>egraph</title>
<polygon fill="white" stroke="transparent" points="-4,4 -4,-432 1004.53,-432 1004.53,4 -4,4"/>
<g id="clust1" class="cluster">
<title>cluster_0</title>
<polygon fill="none" stroke="black" stroke-dasharray="1,5" points="8,-224 8,-276 78,-276 78,-224 8,-224"/>
</g>
<g id="clust3" class="cluster">
<title>cluster_14</title>
<polygon fill="none" stroke="black" stroke-dasharray="1,5" points="346,-80 346,-132 416,-132 416,-80 346,-80"/>
</g>
<g id="clust4" class="cluster">
<title>cluster_11</title>
<polygon fill="none" stroke="black" stroke-dasharray="1,5" points="644,-80 644,-132 858,-132 858,-80 644,-80"/>
</g>
<g id="clust5" class="cluster">
<title>cluster_8</title>
<polygon fill="none" stroke="black" stroke-dasharray="1,5" points="532,-152 532,-204 818,-204 818,-152 532,-152"/>
</g>
<g id="clust2" class="cluster">
<title>cluster_17</title>
<polygon fill="none" stroke="black" stroke-dasharray="1,5" points="731,-8 731,-60 801,-60 801,-8 731,-8"/>
</g>
<g id="clust14" class="cluster">
<title>cluster_12</title>
<polygon fill="none" stroke="black" stroke-dasharray="1,5" points="853,-8 853,-60 923,-60 923,-8 853,-8"/>
</g>
<g id="clust8" class="cluster">
<title>cluster_10</title>
<polygon fill="none" stroke="black" stroke-dasharray="1,5" points="629,-8 629,-60 699,-60 699,-8 629,-8"/>
</g>
<g id="clust7" class="cluster">
<title>cluster_2</title>
<polygon fill="none" stroke="black" stroke-dasharray="1,5" points="35,-296 35,-348 249,-348 249,-296 35,-296"/>
</g>
<g id="clust11" class="cluster">
<title>cluster_1</title>
<polygon fill="none" stroke="black" stroke-dasharray="1,5" points="291,-8 291,-60 361,-60 361,-8 291,-8"/>
</g>
<g id="clust10" class="cluster">
<title>cluster_4</title>
<polygon fill="none" stroke="black" stroke-dasharray="1,5" points="454,-152 454,-204 524,-204 524,-152 454,-152"/>
</g>
<g id="clust6" class="cluster">
<title>cluster_5</title>
<polygon fill="none" stroke="black" stroke-dasharray="1,5" points="194,-224 194,-276 336,-276 336,-224 194,-224"/>
</g>
<g id="clust12" class="cluster">
<title>cluster_18</title>
<polygon fill="none" stroke="black" stroke-dasharray="1,5" points="494,-80 494,-132 636,-132 636,-80 494,-80"/>
</g>
<g id="clust13" class="cluster">
<title>cluster_15</title>
<polygon fill="none" stroke="black" stroke-dasharray="1,5" points="232,-152 232,-204 446,-204 446,-152 232,-152"/>
</g>
<g id="clust15" class="cluster">
<title>cluster_3</title>
<polygon fill="none" stroke="black" stroke-dasharray="1,5" points="35,-368 35,-420 105,-420 105,-368 35,-368"/>
</g>
<g id="clust9" class="cluster">
<title>cluster_7</title>
<polygon fill="none" stroke="black" stroke-dasharray="1,5" points="898,-80 898,-132 968,-132 968,-80 898,-80"/>
</g>
<!-- 0.0 -->
<g id="node1" class="node">
<title>0.0</title>
<ellipse fill="none" stroke="black" cx="43" cy="-250" rx="27" ry="18"/>
<text text-anchor="middle" x="43" y="-246.3" font-family="Times New Roman,serif" font-size="14.00">7</text>
</g>
<!-- 17.0 -->
<g id="node2" class="node">
<title>17.0</title>
<ellipse fill="none" stroke="black" cx="766" cy="-34" rx="27" ry="18"/>
<text text-anchor="middle" x="766" y="-30.3" font-family="Times New Roman,serif" font-size="14.00">2</text>
</g>
<!-- 14.0 -->
<g id="node3" class="node">
<title>14.0</title>
<ellipse fill="none" stroke="black" cx="381" cy="-106" rx="27" ry="18"/>
<text text-anchor="middle" x="381" y="-102.3" font-family="Times New Roman,serif" font-size="14.00">3</text>
</g>
<!-- 11.0 -->
<g id="node4" class="node">
<title>11.0</title>
<ellipse fill="none" stroke="black" cx="679" cy="-106" rx="27" ry="18"/>
<text text-anchor="middle" x="679" y="-102.3" font-family="Times New Roman,serif" font-size="14.00">*</text>
</g>
<!-- 10.0 -->
<g id="node16" class="node">
<title>10.0</title>
<ellipse fill="none" stroke="black" cx="664" cy="-34" rx="27" ry="18"/>
<text text-anchor="middle" x="664" y="-30.3" font-family="Times New Roman,serif" font-size="14.00">4</text>
</g>
<!-- 11.0&#45;&gt;10.0 -->
<g id="edge1" class="edge">
<title>11.0:sw&#45;&gt;10.0</title>
<path fill="none" stroke="black" d="M664,-90C656.78,-82.78 655.59,-72.01 656.65,-61.9"/>
<polygon fill="black" stroke="black" points="656.94,-70.58 657.42,-60 650.44,-67.98 656.94,-70.58"/>
</g>
<!-- 1.0 -->
<g id="node19" class="node">
<title>1.0</title>
<ellipse fill="none" stroke="black" cx="326" cy="-34" rx="27" ry="18"/>
<text text-anchor="middle" x="326" y="-30.3" font-family="Times New Roman,serif" font-size="14.00">x</text>
</g>
<!-- 11.0&#45;&gt;1.0 -->
<g id="edge2" class="edge">
<title>11.0:se&#45;&gt;1.0</title>
<path fill="none" stroke="black" d="M694,-90C717.72,-66.28 460.76,-44.85 362.91,-37.6"/>
<polygon fill="black" stroke="black" points="371.59,-37.19 361,-36.87 369.08,-43.72 371.59,-37.19"/>
</g>
<!-- 11.1 -->
<g id="node5" class="node">
<title>11.1</title>
<ellipse fill="none" stroke="black" cx="751" cy="-106" rx="27" ry="18"/>
<text text-anchor="middle" x="751" y="-102.3" font-family="Times New Roman,serif" font-size="14.00">&lt;&lt;</text>
</g>
<!-- 11.1&#45;&gt;17.0 -->
<g id="edge4" class="edge">
<title>11.1:se&#45;&gt;17.0</title>
<path fill="none" stroke="black" d="M766,-90C773.22,-82.78 774.41,-72.01 773.35,-61.9"/>
<polygon fill="black" stroke="black" points="779.56,-67.98 772.58,-60 773.06,-70.58 779.56,-67.98"/>
</g>
<!-- 11.1&#45;&gt;1.0 -->
<g id="edge3" class="edge">
<title>11.1:sw&#45;&gt;1.0</title>
<path fill="none" stroke="black" d="M736,-90C728.69,-82.69 724.94,-82.85 715,-80 649.28,-61.12 446.68,-44.13 362.87,-37.71"/>
<polygon fill="black" stroke="black" points="371.58,-37.48 361,-36.95 368.94,-43.97 371.58,-37.48"/>
</g>
<!-- 11.2 -->
<g id="node6" class="node">
<title>11.2</title>
<ellipse fill="none" stroke="black" cx="823" cy="-106" rx="27" ry="18"/>
<text text-anchor="middle" x="823" y="-102.3" font-family="Times New Roman,serif" font-size="14.00">&lt;&lt;</text>
</g>
<!-- 18.0 -->
<g id="node20" class="node">
<title>18.0</title>
<ellipse fill="none" stroke="black" cx="529" cy="-106" rx="27" ry="18"/>
<text text-anchor="middle" x="529" y="-102.3" font-family="Times New Roman,serif" font-size="14.00">*</text>
</g>
<!-- 11.2&#45;&gt;18.0 -->
<g id="edge5" class="edge">
<title>11.2:sw&#45;&gt;18.0</title>
<path fill="none" stroke="black" d="M808,-88C803.6,-83.6 798.73,-83.96 794,-88 774.96,-104.25 800.87,-131.82 778,-142 757.29,-151.22 595.39,-149.5 574,-142 570.67,-140.83 567.39,-139.3 564.23,-137.53"/>
<polygon fill="black" stroke="black" points="565.95,-134.47 555.65,-132 562.16,-140.35 565.95,-134.47"/>
</g>
<!-- 12.0 -->
<g id="node25" class="node">
<title>12.0</title>
<ellipse fill="none" stroke="black" cx="888" cy="-34" rx="27" ry="18"/>
<text text-anchor="middle" x="888" y="-30.3" font-family="Times New Roman,serif" font-size="14.00">1</text>
</g>
<!-- 11.2&#45;&gt;12.0 -->
<g id="edge6" class="edge">
<title>11.2:se&#45;&gt;12.0</title>
<path fill="none" stroke="black" d="M838,-90C845,-83 852.29,-75.27 859.07,-67.86"/>
<polygon fill="black" stroke="black" points="862.07,-69.76 866.19,-60 856.88,-65.06 862.07,-69.76"/>
</g>
<!-- 8.0 -->
<g id="node7" class="node">
<title>8.0</title>
<ellipse fill="none" stroke="black" cx="711" cy="-178" rx="27" ry="18"/>
<text text-anchor="middle" x="711" y="-174.3" font-family="Times New Roman,serif" font-size="14.00">*</text>
</g>
<!-- 7.0 -->
<g id="node17" class="node">
<title>7.0</title>
<ellipse fill="none" stroke="black" cx="933" cy="-106" rx="27" ry="18"/>
<text text-anchor="middle" x="933" y="-102.3" font-family="Times New Roman,serif" font-size="14.00">8</text>
</g>
<!-- 8.0&#45;&gt;7.0 -->
<g id="edge7" class="edge">
<title>8.0:sw&#45;&gt;7.0</title>
<path fill="none" stroke="black" d="M696,-162C679.67,-145.67 724.22,-155.8 747,-152 808.03,-141.82 828.7,-152.67 888.48,-132.87"/>
<polygon fill="black" stroke="black" points="889.7,-136.15 898,-129.57 887.41,-129.54 889.7,-136.15"/>
</g>
<!-- 8.0&#45;&gt;1.0 -->
<g id="edge8" class="edge">
<title>8.0:se&#45;&gt;1.0</title>
<path fill="none" stroke="black" d="M726,-162C800.76,-87.24 580.88,-186.04 490,-132 465.84,-117.63 476.35,-97.05 454,-80 426.85,-59.29 389.4,-47.6 362.02,-41.36"/>
<polygon fill="black" stroke="black" points="370.3,-45.31 361,-40.23 365.1,-50 370.3,-45.31"/>
</g>
<!-- 8.1 -->
<g id="node8" class="node">
<title>8.1</title>
<ellipse fill="none" stroke="black" cx="567" cy="-178" rx="27" ry="18"/>
<text text-anchor="middle" x="567" y="-174.3" font-family="Times New Roman,serif" font-size="14.00">&lt;&lt;</text>
</g>
<!-- 8.1&#45;&gt;14.0 -->
<g id="edge10" class="edge">
<title>8.1:se&#45;&gt;14.0</title>
<path fill="none" stroke="black" d="M582,-162C630.96,-113.04 501.53,-154.06 425.85,-132.7"/>
<polygon fill="black" stroke="black" points="426.59,-129.26 416,-129.44 424.39,-135.91 426.59,-129.26"/>
</g>
<!-- 8.1&#45;&gt;1.0 -->
<g id="edge9" class="edge">
<title>8.1:sw&#45;&gt;1.0</title>
<path fill="none" stroke="black" d="M552,-162C521.59,-131.59 495.48,-156.3 460,-132 435.94,-115.52 442.66,-98.35 420,-80 405.35,-68.13 387.05,-58.47 370.5,-51.18"/>
<polygon fill="black" stroke="black" points="371.57,-47.84 361,-47.17 368.85,-54.29 371.57,-47.84"/>
</g>
<!-- 8.2 -->
<g id="node9" class="node">
<title>8.2</title>
<ellipse fill="none" stroke="black" cx="783" cy="-178" rx="27" ry="18"/>
<text text-anchor="middle" x="783" y="-174.3" font-family="Times New Roman,serif" font-size="14.00">&lt;&lt;</text>
</g>
<!-- 8.2&#45;&gt;11.0 -->
<g id="edge11" class="edge">
<title>8.2:sw&#45;&gt;11.0</title>
<path fill="none" stroke="black" d="M768,-162C751.55,-145.55 741.16,-145.85 724.01,-137.12"/>
<polygon fill="black" stroke="black" points="725.42,-133.9 715,-132 721.96,-139.98 725.42,-133.9"/>
</g>
<!-- 8.2&#45;&gt;12.0 -->
<g id="edge12" class="edge">
<title>8.2:se&#45;&gt;12.0</title>
<path fill="none" stroke="black" d="M798,-162C853.49,-106.51 921.44,-192.02 972,-132 986.89,-114.32 983.87,-99.83 972,-80 963.18,-65.27 947.71,-55.09 932.43,-48.19"/>
<polygon fill="black" stroke="black" points="933.58,-44.88 923,-44.3 930.91,-51.35 933.58,-44.88"/>
</g>
<!-- 8.3 -->
<g id="node10" class="node">
<title>8.3</title>
<ellipse fill="none" stroke="black" cx="639" cy="-178" rx="27" ry="18"/>
<text text-anchor="middle" x="639" y="-174.3" font-family="Times New Roman,serif" font-size="14.00">&lt;&lt;</text>
</g>
<!-- 8.3&#45;&gt;17.0 -->
<g id="edge14" class="edge">
<title>8.3:se&#45;&gt;17.0</title>
<path fill="none" stroke="black" d="M654,-162C687.02,-128.98 830.78,-166.73 862,-132 877.45,-114.81 874.4,-99.5 862,-80 848.79,-59.21 823.16,-47.86 801.7,-41.76"/>
<polygon fill="black" stroke="black" points="811.12,-44.37 801,-41.24 806.97,-50 811.12,-44.37"/>
</g>
<!-- 8.3&#45;&gt;18.0 -->
<g id="edge13" class="edge">
<title>8.3:sw&#45;&gt;18.0</title>
<path fill="none" stroke="black" d="M624,-162C605.8,-143.8 593.61,-146.04 573.93,-136.77"/>
<polygon fill="black" stroke="black" points="575.47,-133.62 565,-132 572.17,-139.8 575.47,-133.62"/>
</g>
<!-- 5.0 -->
<g id="node11" class="node">
<title>5.0</title>
<ellipse fill="none" stroke="black" cx="229" cy="-250" rx="27" ry="18"/>
<text text-anchor="middle" x="229" y="-246.3" font-family="Times New Roman,serif" font-size="14.00">*</text>
</g>
<!-- 4.0 -->
<g id="node18" class="node">
<title>4.0</title>
<ellipse fill="none" stroke="black" cx="489" cy="-178" rx="27" ry="18"/>
<text text-anchor="middle" x="489" y="-174.3" font-family="Times New Roman,serif" font-size="14.00">6</text>
</g>
<!-- 5.0&#45;&gt;4.0 -->
<g id="edge15" class="edge">
<title>5.0:sw&#45;&gt;4.0</title>
<path fill="none" stroke="black" d="M214,-234C197.67,-217.67 242.16,-227.47 265,-224 343.41,-212.1 369.84,-229.91 444.19,-205.77"/>
<polygon fill="black" stroke="black" points="445.66,-208.97 454,-202.44 443.41,-202.34 445.66,-208.97"/>
</g>
<!-- 5.0&#45;&gt;1.0 -->
<g id="edge16" class="edge">
<title>5.0:se&#45;&gt;1.0</title>
<path fill="none" stroke="black" d="M244,-234C254.69,-223.31 231.66,-218.66 228,-204 222.39,-181.58 220.11,-173.72 228,-152 240.08,-118.77 266.19,-88.4 288.42,-66.93"/>
<polygon fill="black" stroke="black" points="290.9,-69.4 295.79,-60 286.11,-64.3 290.9,-69.4"/>
</g>
<!-- 5.1 -->
<g id="node12" class="node">
<title>5.1</title>
<ellipse fill="none" stroke="black" cx="301" cy="-250" rx="27" ry="18"/>
<text text-anchor="middle" x="301" y="-246.3" font-family="Times New Roman,serif" font-size="14.00">&lt;&lt;</text>
</g>
<!-- 15.0 -->
<g id="node22" class="node">
<title>15.0</title>
<ellipse fill="none" stroke="black" cx="267" cy="-178" rx="27" ry="18"/>
<text text-anchor="middle" x="267" y="-174.3" font-family="Times New Roman,serif" font-size="14.00">*</text>
</g>
<!-- 5.1&#45;&gt;15.0 -->
<g id="edge17" class="edge">
<title>5.1:sw&#45;&gt;15.0</title>
<path fill="none" stroke="black" d="M286,-234C278.47,-226.47 273.92,-215.82 271.17,-205.89"/>
<polygon fill="black" stroke="black" points="278.37,-210.38 269.91,-204 272.54,-214.26 278.37,-210.38"/>
</g>
<!-- 5.1&#45;&gt;12.0 -->
<g id="edge18" class="edge">
<title>5.1:se&#45;&gt;12.0</title>
<path fill="none" stroke="black" d="M316,-234C355.82,-194.18 767.17,-216.89 822,-204 901.48,-185.31 945.98,-200.11 991,-132 1003.74,-112.72 1003.65,-99.34 991,-80 976.29,-57.53 947.63,-46.21 924.27,-40.55"/>
<polygon fill="black" stroke="black" points="932.74,-43.56 923,-39.39 928.01,-48.73 932.74,-43.56"/>
</g>
<!-- 2.0 -->
<g id="node13" class="node">
<title>2.0</title>
<ellipse fill="none" stroke="black" cx="70" cy="-322" rx="27" ry="18"/>
<text text-anchor="middle" x="70" y="-318.3" font-family="Times New Roman,serif" font-size="14.00">*</text>
</g>
<!-- 2.0&#45;&gt;0.0 -->
<g id="edge19" class="edge">
<title>2.0:sw&#45;&gt;0.0</title>
<path fill="none" stroke="black" d="M55,-306C47.72,-298.72 44.4,-288.11 43.01,-278.15"/>
<polygon fill="black" stroke="black" points="49.05,-284.07 42.18,-276 42.52,-286.59 49.05,-284.07"/>
</g>
<!-- 2.0&#45;&gt;1.0 -->
<g id="edge20" class="edge">
<title>2.0:se&#45;&gt;1.0</title>
<path fill="none" stroke="black" d="M85,-306C162.17,-228.83 100.04,-153.18 181,-80 210.86,-53 256.71,-42.2 288.83,-37.88"/>
<polygon fill="black" stroke="black" points="284.03,-44.63 291,-36.65 280.58,-38.54 284.03,-44.63"/>
</g>
<!-- 2.1 -->
<g id="node14" class="node">
<title>2.1</title>
<ellipse fill="none" stroke="black" cx="142" cy="-322" rx="27" ry="18"/>
<text text-anchor="middle" x="142" y="-318.3" font-family="Times New Roman,serif" font-size="14.00">+</text>
</g>
<!-- 2.1&#45;&gt;5.0 -->
<g id="edge21" class="edge">
<title>2.1:sw&#45;&gt;5.0</title>
<path fill="none" stroke="black" d="M127,-306C116.47,-295.47 152.21,-278.73 184.24,-266.49"/>
<polygon fill="black" stroke="black" points="185.86,-269.62 194,-262.84 183.41,-263.06 185.86,-269.62"/>
</g>
<!-- 2.1&#45;&gt;1.0 -->
<g id="edge22" class="edge">
<title>2.1:se&#45;&gt;1.0</title>
<path fill="none" stroke="black" d="M157,-306C181.52,-281.48 174.35,-185.82 182,-152 189.35,-119.49 180.23,-104.35 203,-80 225.52,-55.92 261.98,-44.68 289.37,-39.46"/>
<polygon fill="black" stroke="black" points="283.27,-45.99 291,-38.74 280.44,-39.58 283.27,-45.99"/>
</g>
<!-- 2.2 -->
<g id="node15" class="node">
<title>2.2</title>
<ellipse fill="none" stroke="black" cx="214" cy="-322" rx="27" ry="18"/>
<text text-anchor="middle" x="214" y="-318.3" font-family="Times New Roman,serif" font-size="14.00">&#45;</text>
</g>
<!-- 2.2&#45;&gt;8.0 -->
<g id="edge23" class="edge">
<title>2.2:sw&#45;&gt;8.0</title>
<path fill="none" stroke="black" d="M199,-306C153.7,-260.7 277.35,-289.4 340,-276 485.58,-244.87 533.16,-263.72 665.73,-207.96"/>
<polygon fill="black" stroke="black" points="667.18,-211.15 675,-204 664.43,-204.71 667.18,-211.15"/>
</g>
<!-- 2.2&#45;&gt;1.0 -->
<g id="edge24" class="edge">
<title>2.2:se&#45;&gt;1.0</title>
<path fill="none" stroke="black" d="M229,-306C244.46,-290.54 199.66,-295.62 190,-276 162.54,-220.24 217.59,-98.11 233,-80 245.63,-65.16 264.29,-54.81 281.58,-47.82"/>
<polygon fill="black" stroke="black" points="282.88,-51.07 291,-44.27 280.41,-44.52 282.88,-51.07"/>
</g>
<!-- 18.0&#45;&gt;17.0 -->
<g id="edge25" class="edge">
<title>18.0:sw&#45;&gt;17.0</title>
<path fill="none" stroke="black" d="M514,-90C497.67,-73.67 542.23,-83.88 565,-80 626.09,-69.59 643.12,-75.98 703,-60 709.08,-58.38 715.37,-56.34 721.51,-54.14"/>
<polygon fill="black" stroke="black" points="722.87,-57.36 731,-50.57 720.41,-50.81 722.87,-57.36"/>
</g>
<!-- 18.0&#45;&gt;1.0 -->
<g id="edge26" class="edge">
<title>18.0:se&#45;&gt;1.0</title>
<path fill="none" stroke="black" d="M544,-90C570.78,-63.22 431.72,-45.44 362.84,-38.4"/>
<polygon fill="black" stroke="black" points="371.46,-39.11 361,-37.4 368.11,-45.25 371.46,-39.11"/>
</g>
<!-- 18.1 -->
<g id="node21" class="node">
<title>18.1</title>
<ellipse fill="none" stroke="black" cx="601" cy="-106" rx="27" ry="18"/>
<text text-anchor="middle" x="601" y="-102.3" font-family="Times New Roman,serif" font-size="14.00">&lt;&lt;</text>
</g>
<!-- 18.1&#45;&gt;1.0 -->
<g id="edge27" class="edge">
<title>18.1:sw&#45;&gt;1.0</title>
<path fill="none" stroke="black" d="M586,-90C555.02,-59.02 426.9,-43.73 362.83,-37.91"/>
<polygon fill="black" stroke="black" points="371.53,-38.24 361,-37.02 368.47,-44.53 371.53,-38.24"/>
</g>
<!-- 18.1&#45;&gt;12.0 -->
<g id="edge28" class="edge">
<title>18.1:se&#45;&gt;12.0</title>
<path fill="none" stroke="black" d="M616,-90C624.17,-81.83 628.83,-82.95 640,-80 711.43,-61.17 732.7,-75.15 805,-60 817.61,-57.36 831.07,-53.69 843.4,-49.97"/>
<polygon fill="black" stroke="black" points="844.48,-53.3 853,-47 842.41,-46.61 844.48,-53.3"/>
</g>
<!-- 15.0&#45;&gt;14.0 -->
<g id="edge29" class="edge">
<title>15.0:sw&#45;&gt;14.0</title>
<path fill="none" stroke="black" d="M252,-162C236.94,-146.94 302.73,-126.77 345.88,-115.52"/>
<polygon fill="black" stroke="black" points="347.28,-125.5 346,-114.99 340.44,-124.01 347.28,-125.5"/>
</g>
<!-- 15.0&#45;&gt;1.0 -->
<g id="edge30" class="edge">
<title>15.0:se&#45;&gt;1.0</title>
<path fill="none" stroke="black" d="M282,-162C308.45,-135.55 287.56,-114.91 301,-80 302.41,-76.33 304.08,-72.59 305.87,-68.92"/>
<polygon fill="black" stroke="black" points="309,-70.48 310.5,-60 302.79,-67.26 309,-70.48"/>
</g>
<!-- 15.1 -->
<g id="node23" class="node">
<title>15.1</title>
<ellipse fill="none" stroke="black" cx="339" cy="-178" rx="27" ry="18"/>
<text text-anchor="middle" x="339" y="-174.3" font-family="Times New Roman,serif" font-size="14.00">+</text>
</g>
<!-- 15.1&#45;&gt;1.0 -->
<g id="edge32" class="edge">
<title>15.1:se&#45;&gt;1.0</title>
<path fill="none" stroke="black" d="M354,-162C370.22,-145.78 322.5,-152.4 312,-132 300.61,-109.87 306.81,-81.36 314.21,-60.98"/>
<polygon fill="black" stroke="black" points="311.53,-70.02 314.99,-60 306.04,-65.67 311.53,-70.02"/>
</g>
<!-- 15.1&#45;&gt;18.0 -->
<g id="edge31" class="edge">
<title>15.1:sw&#45;&gt;18.0</title>
<path fill="none" stroke="black" d="M324,-162C317.81,-155.81 433.74,-128.51 493.92,-114.85"/>
<polygon fill="black" stroke="black" points="494.06,-125.21 494,-114.62 487.44,-122.94 494.06,-125.21"/>
</g>
<!-- 15.2 -->
<g id="node24" class="node">
<title>15.2</title>
<ellipse fill="none" stroke="black" cx="411" cy="-178" rx="27" ry="18"/>
<text text-anchor="middle" x="411" y="-174.3" font-family="Times New Roman,serif" font-size="14.00">&#45;</text>
</g>
<!-- 15.2&#45;&gt;11.0 -->
<g id="edge33" class="edge">
<title>15.2:sw&#45;&gt;11.0</title>
<path fill="none" stroke="black" d="M396,-162C378.74,-144.74 425.84,-155.5 450,-152 530.75,-140.29 557.77,-158.58 634.4,-133.7"/>
<polygon fill="black" stroke="black" points="635.65,-136.97 644,-130.44 633.41,-130.34 635.65,-136.97"/>
</g>
<!-- 15.2&#45;&gt;1.0 -->
<g id="edge34" class="edge">
<title>15.2:se&#45;&gt;1.0</title>
<path fill="none" stroke="black" d="M426,-162C454.03,-133.97 367.41,-162.43 342,-132 325.91,-112.72 323.03,-83.56 323.49,-62.24"/>
<polygon fill="black" stroke="black" points="325.33,-70.51 323.96,-60 318.48,-69.06 325.33,-70.51"/>
</g>
<!-- 3.0 -->
<g id="node26" class="node">
<title>3.0</title>
<ellipse fill="none" stroke="black" cx="70" cy="-394" rx="27" ry="18"/>
<text text-anchor="middle" x="70" y="-390.3" font-family="Times New Roman,serif" font-size="14.00">l</text>
</g>
<!-- 3.0&#45;&gt;2.0 -->
<g id="edge35" class="edge">
<title>3.0&#45;&gt;2.0</title>
<path fill="none" stroke="black" d="M70,-375.7C70,-367.98 70,-358.71 70,-350.11"/>
<polygon fill="black" stroke="black" points="73.5,-358 70,-348 66.5,-358 73.5,-358"/>
</g>
</g>
</svg>
